<svg xmlns="http://www.w3.org/2000/svg" xmlns:xlink="http://www.w3.org/1999/xlink" id="eAMJOgF4ve61" viewBox="0 0 640 480" shape-rendering="geometricPrecision" text-rendering="geometricPrecision" style="background-color:rgb(6,2,29)" width="700"  height="525" ><style><![CDATA[#eAMJOgF4ve62 {animation: eAMJOgF4ve62_s_do 12000ms linear infinite normal forwards}@keyframes eAMJOgF4ve62_s_do { 0% {stroke-dashoffset: 0} 100% {stroke-dashoffset: 300}} #eAMJOgF4ve63 {animation: eAMJOgF4ve63_s_do 12000ms linear infinite normal forwards}@keyframes eAMJOgF4ve63_s_do { 0% {stroke-dashoffset: 0} 100% {stroke-dashoffset: 360}} #eAMJOgF4ve64 {animation: eAMJOgF4ve64_s_do 12000ms linear infinite normal forwards}@keyframes eAMJOgF4ve64_s_do { 0% {stroke-dashoffset: 0} 100% {stroke-dashoffset: 500}} #eAMJOgF4ve65 {animation: eAMJOgF4ve65_s_do 12000ms linear infinite normal forwards}@keyframes eAMJOgF4ve65_s_do { 0% {stroke-dashoffset: 0} 100% {stroke-dashoffset: 360}}]]></style><defs><linearGradient id="eAMJOgF4ve62-stroke" x1="0" y1="0.5" x2="1" y2="0.5" spreadMethod="pad" gradientUnits="objectBoundingBox"><stop id="eAMJOgF4ve62-stroke-0" offset="0%" stop-color="rgb(0,54,164)"/><stop id="eAMJOgF4ve62-stroke-1" offset="49%" stop-color="rgb(106,35,100)"/><stop id="eAMJOgF4ve62-stroke-2" offset="100%" stop-color="rgb(76,206,255)"/></linearGradient><linearGradient id="eAMJOgF4ve63-stroke" x1="0" y1="0.5" x2="1" y2="0.5" spreadMethod="pad" gradientUnits="objectBoundingBox"><stop id="eAMJOgF4ve63-stroke-0" offset="0%" stop-color="rgb(255,255,255)"/><stop id="eAMJOgF4ve63-stroke-1" offset="48%" stop-color="rgb(53,159,173)"/><stop id="eAMJOgF4ve63-stroke-2" offset="100%" stop-color="rgb(175,172,122)"/></linearGradient><linearGradient id="eAMJOgF4ve64-stroke" x1="0" y1="0.5" x2="1" y2="0.5" spreadMethod="pad" gradientUnits="objectBoundingBox"><stop id="eAMJOgF4ve64-stroke-0" offset="0%" stop-color="rgb(174,59,212)"/><stop id="eAMJOgF4ve64-stroke-1" offset="48%" stop-color="rgb(43,196,195)"/><stop id="eAMJOgF4ve64-stroke-2" offset="100%" stop-color="rgb(255,0,246)"/></linearGradient><linearGradient id="eAMJOgF4ve65-stroke" x1="0" y1="0.5" x2="1" y2="0.5" spreadMethod="pad" gradientUnits="objectBoundingBox"><stop id="eAMJOgF4ve65-stroke-0" offset="0%" stop-color="rgb(255,255,255)"/><stop id="eAMJOgF4ve65-stroke-1" offset="48%" stop-color="rgba(255,176,195,0.77)"/><stop id="eAMJOgF4ve65-stroke-2" offset="100%" stop-color="rgba(255,255,255,0.52)"/></linearGradient></defs><path id="eAMJOgF4ve62" d="M-28.184069,236.782402C-22.416319,115.994587,38.36794,34.85463,85.69268,12.37538C108.26693,1.65261,173.97045,-28.611139,211.0966,56.92678C233.149683,107.736648,222.30834,173.14729,192.94603,209.55655C180.87628,224.52304,153.37119,253.70863,131.0691,242.55758C101.64318,227.84462,116.11517,176.6412,126.11895,154.27982C147.51903,106.44435,210.91994,48.61763,268.02338,67.65211C341.23469,92.05588,235.732082,215.216436,272.97353,252.45789C329.075282,308.559651,352.0863,178.50731,396.72739,173.25542C431.40946,169.17518,433.482921,234.616969,512.23102,253.28292C599.246683,273.908562,661.790667,187.658672,640,147.67962C596.380836,67.65211,512.53453,103.63856,480.88002,147.67962C424.67957,225.87155,486.667172,336.323752,395.07734,403.4376C337.65606,445.51392,251.977514,417.583961,192.94603,366.31145C94.894284,281.147418,16.936504,270.279162,-54.962907,480" opacity="0.25" fill="none" stroke="url(#eAMJOgF4ve62-stroke)" stroke-width="40" stroke-linecap="round" stroke-miterlimit="1" stroke-dasharray="0.01,300"/><path id="eAMJOgF4ve63" d="M396.72739,-4.304194C420.88375,-42.954374,585.244446,-26.551229,584.00825,77.55242C583.56083,115.230987,523.444062,140.787676,524.60639,187.28085C526.25644,253.282922,571.59109,279.36741,561.73255,315.98488C556.17101,336.64202,498.41773,385.89287,483.3551,366.31145C468.45238,346.93792,495.81252,341.05431,508.9309,344.03575C548.39828,353.00561,543.77554,402.23247,518.83121,423.23822C502.06494,437.35718,482.69094,444.53157,461.07941,445.51392C449.73791,446.02944,435.51289,445.52413,427.25335,436.43864C414.28693,422.17557,417.2577,394.76786,413.22791,377.03678C405.27593,342.04805,363.11233,316.78273,329.07528,326.71021C284.5875,339.68581,282.76889,421.48323,310.92471,449.63905C324.58467,463.29901,350.01171,460.68992,356.30113,440.56377C358.10767,434.78283,353.59627,428.00948,351.35098,423.23823C337.9788,394.82234,321.36838,372.83261,287.82399,370.43658C258.37375,368.33299,224.53122,374.89214,196.24613,382.81197C155.3483,394.26336,90.98727,441.7813,50.21657,405.08767C22.95809,380.55504,61.55718,322.53284,85.69268,308.55965C114.32654,291.98215,149.71689,304.32619,180.57064,301.13442C226.99826,296.33156,317.86146,243.80578,322.47507,193.05604C324.95336,165.79479,298.66113,148.92717,274.62358,144.37952C215.32272,133.16044,151.16094,142.17429,93.11791,121.2788C58.91504,108.96577,75.205588,61.180899,103.410878,47.861739C186.880648,8.445459,279.13896,62.98071,353.82606,92.4029C382.8255,103.82692,475.92988,92.4029,422.936361,-15.839694" fill="none" stroke="url(#eAMJOgF4ve63-stroke)" stroke-width="4" stroke-linecap="round" stroke-miterlimit="1" stroke-dasharray="0.01,72"/><path id="eAMJOgF4ve64" d="M-28.184069,160.488657C-19.493039,108.342477,109.34716,30.07385,136.84428,75.90237C162.16007,118.09535,66.12632,202.7843,93.94294,236.7824C102.8133,247.62395,182.09019,231.25226,197.07116,230.18219C279.99924,224.25875,360.83785,241.38077,428.07838,292.88415C451.91037,311.13844,493.12496,347.59677,475.92988,381.98693C469.25479,395.33711,451.77057,401.96044,438.80372,406.7377C374.56781,430.40356,264.68068,427.71352,240.79753,346.51082C232.99567,319.9845,234.38033,295.92804,250.69784,273.08353C283.5518,227.08799,347.80165,219.41818,378.57684,173.25541C419.06886,112.51739,369.59554,47.24183,301.02442,52.80165C263.08117,55.87813,229.93217,127.44909,273.79857,145.20454C335.04087,169.99309,400.1067,133.91001,463.5545,182.3307C502.27689,211.882,475.01255,274.09139,512.23102,303.60949C532.68594,319.83236,594.83376,317.46556,584.00826,358.06119C565.54615,427.29409,488.39249,392.0697,442.10383,382.81196C385.73167,371.53753,363.89654,350.9891,321.65007,315.98487C306.66535,303.56896,290.10766,293.51774,276.27365,279.68374C263.80244,267.21253,254.15425,251.23953,238.32246,242.55758C209.06388,226.51255,165.91535,237.61377,138.49434,253.28292C43.29108,307.68478,89.63333,370.55854,173.97045,390.2372C220.75228,401.15296,301.024421,431.984879,356.30113,524.680857" opacity="0.2" fill="none" stroke="url(#eAMJOgF4ve64-stroke)" stroke-width="20" stroke-linecap="round" stroke-miterlimit="1" stroke-dasharray="0.01,500"/><path id="eAMJOgF4ve65" d="M-48.371193,173.25542C24.64077,173.25542,32.53264,115.77056,35.3661,97.35304C38.63356,76.11456,34.22546,34.69538,49.39154,18.15056C55.84046,11.11538,58.44735,12.7887,68.36713,12.37538C107.56341,10.7422,135.30024,60.89528,139.31935,94.05293C140.8168,106.40691,133.486233,160.05502,160.915728,171.60537C205.012625,190.174235,287.05645,119.52971,305.14953,199.65623C320.05156,265.65094,183.921725,292.33601,136.01925,301.13442C95.59298,308.55965,72.363341,354.983711,95.59298,396.01236C118.481569,436.43864,180.57064,429.512986,217.357279,405.08767C246.525743,385.720612,280.12909,356.71284,280.39876,358.06118C282.61014,369.11807,220.01651,448.28793,251.52286,454.5892C275.67397,459.41942,315.18558,400.30219,323.3001,386.93709C359.95609,326.56252,368.47449,258.32159,395.07734,194.70608C403.55438,174.43489,420.73201,129.72802,446.22894,122.92884C481.08247,113.63457,487.90668,155.77563,490.78033,180.68064C492.96727,199.63411,493.89428,220.22682,492.43038,239.25747C489.86596,272.59496,456.51134,371.52049,486.6552,396.01237C497.79271,405.06159,512.73269,405.42639,526.25644,403.4376C584.52411,394.86883,561.9366,319.61191,589.78342,283.80886C599.31738,271.55091,653.452698,246.102803,652.822387,308.55965" fill="none" stroke="url(#eAMJOgF4ve65-stroke)" stroke-width="2" stroke-linecap="round" stroke-miterlimit="1" stroke-dasharray="0.01,72"/></svg>