<svg xmlns="http://www.w3.org/2000/svg" xmlns:xlink="http://www.w3.org/1999/xlink" id="e6G7bdkqKFx1" viewBox="0 0 700 400" shape-rendering="geometricPrecision" text-rendering="geometricPrecision" style="background-color:#0a0f1e" width="700"  height="400" ><defs><circle id="e6G7bdkqKFx4" r="101.5"/><circle id="e6G7bdkqKFx5" r="27.2"/><path id="e6G7bdkqKFx6" d="M669.8,334.8c.5,3.4-2.5,9.4-5.9,10.4-4.3,1.3-9.3-1.8-9.6-6.3-.2-2.8,14.8-8.5,15.5-4.1Z"/></defs><rect width="800" height="800" rx="0" ry="0" fill="#0a0f1e"/><g transform="matrix(1.233135 0 0 1.233135-477.357454-251.818323)"><circle r="101.5" transform="translate(665.6 377.7)" fill="#dbdbdb"/><g clip-path="url(#e6G7bdkqKFx12)"><path d="M647.9,498.2l-32.7-1.9c-11.2-.6-19.8-10.2-19.2-21.5l.1-1c.6-11.2,10.2-19.8,21.5-19.2l32.7,1.9c11.2.6,19.8,10.2,19.2,21.5l-.1,1c-.7,11.2-10.3,19.8-21.5,19.2Z" fill="#ffbd36"/><clipPath id="e6G7bdkqKFx12"><use width="203" height="203" xlink:href="#e6G7bdkqKFx4" transform="translate(665.6 377.7)"/></clipPath></g><g id="e6G7bdkqKFx14" transform="translate(0 0.000006)"><g id="e6G7bdkqKFx15" transform="translate(.000004 0)"><path d="M666.2,382.1v0c-8.1,2.9-12.3,11.8-9.4,19.9l12.7,35.4c2.9,8.1,11.8,12.3,19.9,9.4v0c8.1-2.9,12.3-11.8,9.4-19.9l-12.7-35.4c-2.9-8.1-11.9-12.3-19.9-9.4Z" fill="#eb951d"/><g id="e6G7bdkqKFx17" transform="translate(0 0.000008)"><path d="M711.8,395.2v0c-6.3-4.4-15.1-2.8-19.5,3.5L673,426.3c-4.4,6.3-2.8,15.1,3.5,19.5v0c6.3,4.4,15.1,2.8,19.5-3.5l19.3-27.6c4.4-6.3,2.8-15.1-3.5-19.5Z" transform="translate(.000005 0.000009)" fill="#37474f"/><path d="M722.7,398.7l-15.9-9.8c-2-1.2-2.6-3.7-1.5-5.5l.8-1.4c3.6-6,11.8-7.6,18.2-3.5v0c6.3,4,8.4,11.8,4.9,17.5l-1,1.6c-1,1.9-3.5,2.4-5.5,1.1Z" fill="#f5f5f5"/><g id="e6G7bdkqKFx20" transform="translate(.000002 0.000007)"><path d="M739.8,373.5c-6.1,2.6-18.3,4.3-25.3-1.7-5.7-4.9-1.6-13.5,3.5-18.8c1.7-1.7,4.4-2.7,5.1-3.3s5-2.6,10-.1c8.3,4,19.1,10,16.8,12.8-4.2,4.8-4.4,8.7-10.1,11.1Z" fill="#f5f5f5"/><path d="M723,349.6c1-.2,4.8-11.4,5.1-12.7s-7.9-7.3-4.3-12.9c3.6-5.5,14.4,11.4,14.9,15.9.4,3.7-3.5,10.4-3.5,10.4" fill="#f5f5f5"/><g transform="translate(.000021 0.000002)"><g><g><g><path d="M705.5,304.3c-7.6,5.1-9.7,15.5-4.6,23.1s15.5,9.7,23.1,4.6s9.7-15.5,4.6-23.1c-5.1-7.7-15.5-9.8-23.1-4.6Zm14.8,22.1c-2.7,1.8-6.3,1.1-8.1-1.6s-1.1-6.3,1.6-8.1s6.3-1.1,8.1,1.6s1.1,6.3-1.6,8.1Z" fill="#ffae27"/></g></g><g><path d="M681.3,266.5l-1.5,1c-1.5,1-1.9,3-.9,4.5l25,37.3c1,1.5,3,1.9,4.5.9l1.5-1c1.5-1,1.9-3,.9-4.5l-25-37.3c-1-1.5-3-1.9-4.5-.9Z" fill="#ffae27"/></g><path d="M724,332c7.6-5.1,9.7-15.5,4.6-23.1-3.6-5.4-9.7-8-15.7-7.3m7.4,24.8c-2.7,1.8-6.3,1.1-8.1-1.6s-1.1-6.3,1.6-8.1" fill="none" stroke="#212324" stroke-linecap="round" stroke-linejoin="round" stroke-miterlimit="10"/><path d="M708.6,301.5l-23-34.3c-.9-1.4-2.9-1.7-4.4-.7l-1.4.9c-.9.6-1.4,1.5-1.5,2.4" fill="none" stroke="#212324" stroke-linecap="round" stroke-linejoin="round" stroke-miterlimit="10"/><g><path d="M680,272.9l-6.4,4.3c-1.3.9-1.7,2.5-.9,3.7l1.3,2l5-3.3c.8-.6,1.9-.4,2.4.4l1.9,2.8c.5.8.2,1.8-.6,2.4l-5,3.3l1.3,2c.8,1.2,2.5,1.4,3.8.6l6.4-4.3c1.3-.9,1.7-2.5.9-3.7l-6.4-9.6c-.7-1.3-2.4-1.5-3.7-.6Z" fill="#ffae27"/></g><path d="M680,272.9l-6.4,4.3c-1.3.9-1.7,2.5-.9,3.7" fill="none" stroke="#212324" stroke-linecap="round" stroke-linejoin="round" stroke-miterlimit="10"/></g></g><g><path d="M733.2,349.2c.8-1.4,3-6.4,3.2-7.7s-8.7-11.9-4.5-17.1c4.1-5.2,14.2,8.9,15.2,17.4.4,3.7-4.5,12.4-4.5,12.4" fill="#f5f5f5"/><path d="M733.2,349.2c.8-1.4,3-6.4,3.2-7.7s-8.7-11.9-4.5-17.1" fill="none" stroke="#212324" stroke-linecap="round" stroke-linejoin="round" stroke-miterlimit="10"/></g><g transform="translate(.000001 0.000001)"><path d="M740.4,353c.8-1.4,3.5-4.5,3.8-5.8s-8.2-13.8-4.3-17.7c5.4-5.5,14.4,14.2,15.4,20.9.5,3.7-5.4,11.9-5.4,11.9" fill="#f5f5f5"/><path d="M740.4,353c.8-1.4,3.5-4.5,3.8-5.8s-8.2-13.8-4.3-17.7c5.4-5.5,14.4,14.2,15.4,20.9" fill="none" stroke="#212324" stroke-linecap="round" stroke-linejoin="round" stroke-miterlimit="10"/></g><path d="M729.6,347.6c0,0,12.5,6.3,14.2,7.2" fill="none" stroke="#212324" stroke-linecap="round" stroke-linejoin="round" stroke-miterlimit="10"/><g transform="translate(0 0.000001)"><path d="M712.8,369.9c-.6-1.2-10.9-16.3-9-25.5s14.7-19.2,16.8-16.2c4,5.6-5.5,13.8-5.8,14.9-.3,1.2,4.8,10.1,7.5,11.6" fill="#f5f5f5"/><path d="M720.6,328.2c4,5.6-5.5,13.8-5.8,14.9-.3,1.2,4.8,10.1,7.5,11.6" fill="none" stroke="#212324" stroke-linecap="round" stroke-linejoin="round" stroke-miterlimit="10"/></g></g></g></g><g id="e6G7bdkqKFx45" transform="translate(.000001 0)"><path d="M674.8,333.5c-1.7,14.9-15.3,25.6-30.2,23.8s-24.8-15.2-23.1-30.1s14.8-25,29.7-23.3s25.3,14.7,23.6,29.6Z" fill="#fff"/><g clip-path="url(#e6G7bdkqKFx49)"><path d="M668.8,308.7c-1,8.3-13.6,4-19.3,9.2-6.9,6.3-7.7,18.9-29.4,17.8-18.4-1-31.5-17.3-29.3-35.6s18.7-31.3,36.9-29.2c18.3,2.1,43.3,19.6,41.1,37.8Z" fill="#212324"/><clipPath id="e6G7bdkqKFx49"><use width="54.400002" height="54.400002" xlink:href="#e6G7bdkqKFx5" transform="translate(647.8 330.4)"/></clipPath></g><g id="e6G7bdkqKFx51" transform="translate(0 0.000019)"><circle r="19.7" transform="translate(601.6 312.3)" fill="#212324"/><circle id="e6G7bdkqKFx53" r="6.8" transform="translate(573.8 322)" fill="#ffbd36"/><path id="e6G7bdkqKFx54" d="M560.8,333.5c-.4-.2-.5-.6-.3-1c1.8-2.9,5.5-4.1,8.7-2.6s4.7,5.1,3.6,8.3c-.1.4-.6.6-1,.4l-11-5.1Z" fill="#212324"/></g><g transform="translate(.000001 0)"><path d="M635.4,353.7c-6.3,2.4-10.7.5-14.6-3.8-4.5-5-4.7-17.8,7.5-14.6" fill="#fff"/><path d="M630.6,342.7c-.8-1.8-8.6-5.5-9.6.2" fill="none" stroke="#212324" stroke-linecap="round" stroke-linejoin="round" stroke-miterlimit="10"/><path d="M629.6,347.7c-.7-.1-5.7-4.1-1.9-7.1" fill="none" stroke="#212324" stroke-linecap="round" stroke-linejoin="round" stroke-miterlimit="10"/></g><g id="e6G7bdkqKFx59"><use width="15.556702" height="12.310822" xlink:href="#e6G7bdkqKFx6" fill="#212324"/><g clip-path="url(#e6G7bdkqKFx63)"><path d="M667.4,342.4c-.3-3.7-8.9-5.3-13.1-3.5c0,0-6.6,5.5,4.7,8.5c11.2,3,8.6-2.6,8.4-5Z" fill="#ff98b9"/><clipPath id="e6G7bdkqKFx63"><use width="15.556702" height="12.310822" xlink:href="#e6G7bdkqKFx6"/></clipPath></g><use width="15.556702" height="12.310822" xlink:href="#e6G7bdkqKFx6" fill="none" stroke="#212324" stroke-miterlimit="10"/></g></g><path d="M631.8,452.5v0c-20.6-3.2-34.7-22.5-31.5-43.1l4.4-28.2c1.6-10.6,11.5-17.8,22.1-16.2l22.9,3.5c18,2.8,30.3,19.6,27.5,37.6l-2.3,14.8c-3.2,20.7-22.5,34.8-43.1,31.6Z" fill="#263238"/><g id="e6G7bdkqKFx67" transform="translate(.000001 0.000001)"><path d="M612.5,377.7v0c-8.1-2.7-17,1.8-19.7,9.9l-11.7,35.6c-2.7,8.1,1.8,17,9.9,19.7v0c8.1,2.7,17-1.8,19.7-9.9l11.7-35.6c2.7-8.2-1.7-17-9.9-19.7Z" transform="translate(.000005 0.000001)" fill="#455a64"/><g id="e6G7bdkqKFx69"><g transform="translate(.000003 0.000001)"><path d="M628.2,444.9l-34.6-1.3c-7.7-.3-13.7-6.8-13.4-14.5v0c.3-7.7,6.8-13.7,14.5-13.4l34.6,1.3c7.7.3,13.7,6.8,13.4,14.5v0c-.3,7.7-6.8,13.7-14.5,13.4Z" transform="translate(.000001 0.000007)" fill="#455a64"/><path d="M583.5,420.6c2.7-3.1,6.7-5,11.1-4.8l24.2.9" fill="none" stroke="#212324" stroke-linecap="round" stroke-linejoin="round" stroke-miterlimit="10"/></g><path d="M644.1,439l1.7-19.3c.2-2.4,2.4-4.1,4.9-3.9l1.9.1c8.1.6,14,7.6,13.3,15.4v0c-.8,7.7-7.7,13.3-15.5,12.6l-2.2-.2c-2.6-.1-4.4-2.3-4.1-4.7Z" fill="#fff"/><g id="e6G7bdkqKFx74" transform="translate(0 0.000018)"><path d="M674.5,448c-6.3-2.7-8.6-10.7-5.5-20.4c2.1-6.5,5.8-7.3,13.4-7.5c2.5-.1,5.9-.4,7-.4c2.2,0,3.8-.8,5.7,5.1c3.1,9.6,6.7,19.9,4.2,21.1-5.9,2.9-18.9,4.6-24.8,2.1Z" fill="#fff"/><path d="M689.5,419.7c3.7-.1,9-2.7,10.4-3.9c2.2-1.8,8.8-12.5,12.6-10.7c6.4,3.2-3,16.1-6.2,18.9-2.9,2.6-9.7,4.2-9.7,4.2" fill="#fff"/><path d="M695.3,424.7c1.6-.5,8.2-3.8,9.3-4.6s9.6-14,14-12.5c7.7,2.6.4,15.7-7.2,23-2.8,2.7-12.6,5.2-12.6,5.2" fill="#fff"/><path d="M695.3,424.7c1.6-.5,8.2-3.8,9.3-4.6s9.6-14,14-12.5" fill="none" stroke="#212324" stroke-linecap="round" stroke-linejoin="round" stroke-miterlimit="10"/><path d="M697.4,431.4c2-.2,10.7-3.3,11.7-4.2c2.2-1.9,10.6-15.7,16.7-14c7.4,2.1-2,18.1-6.9,23.6-2.6,3-19.5,9-19.5,9" fill="#fff"/><path d="M697.4,431.4c2-.2,10.7-3.3,11.7-4.2c2.2-1.9,10.6-15.7,16.7-14" fill="none" stroke="#212324" stroke-linecap="round" stroke-linejoin="round" stroke-miterlimit="10"/><path d="M694.1,420.5c0,0,4.6,14.8,5.1,16.8" fill="none" stroke="#312953" stroke-linecap="round" stroke-linejoin="round" stroke-miterlimit="10"/><path d="M670.3,436.8c2.6-7.8,15,.8,16.6-1.6c2.8-4.1.3-14.7,8.4-14.8c8.6-.1,5.2,18.6,4.8,21.5-.4,2.8-8.7,7-15.8,7.3-2.7.1-18.4,1-14-12.4Z" fill="#fff"/><path d="M670.3,436.8c2.6-7.8,15,.8,16.6-1.6c2.8-4.1.3-14.7,8.4-14.8c8.6-.1,5.2,18.6,4.8,21.5" fill="none" stroke="#212324" stroke-linecap="round" stroke-linejoin="round" stroke-miterlimit="10"/></g></g></g></g></g>
<script><![CDATA[
(function(s,i,u,o,c,w,d,t,n,x,e,p,a,b){(a=Array.from(d.querySelectorAll('svg#' + i.root)).filter(n=> !n.svgatorPlayer)[0]||{}).svgatorPlayer={ready:(function(a){b=[];return function(c){return c?(b.push(c),a.svgatorPlayer):b}})(a)};w[o]=w[o]||{};w[o][s]=w[o][s]||[];w[o][s].push(i);e=d.createElementNS(n,t);e.async=true;e.setAttributeNS(x,'href',[u,s,'.','j','s','?','v','=',c].join(''));e.setAttributeNS(null,'src',[u,s,'.','j','s','?','v','=',c].join(''));p=d.getElementsByTagName(t)[0];p.parentNode.insertBefore(e,p);})('91c80d77',{"root":"e6G7bdkqKFx1","version":"2022-05-04","animations":[{"elements":{"e6G7bdkqKFx14":{"transform":{"data":{"o":{"x":632.75,"y":454.570496,"type":"corner"},"t":{"x":-632.75,"y":-454.57049}},"keys":{"r":[{"t":0,"v":0,"e":[0.445,0.05,0.55,0.95]},{"t":2000,"v":-3.221664,"e":[0.445,0.05,0.55,0.95]},{"t":2500,"v":-3.221664,"e":[0.445,0.05,0.55,0.95]},{"t":4400,"v":3.268985,"e":[0.445,0.05,0.55,0.95]},{"t":4900,"v":3.268985,"e":[0.445,0.05,0.55,0.95]},{"t":6000,"v":0,"e":[0.445,0.05,0.55,0.95]}]}}},"e6G7bdkqKFx15":{"transform":{"data":{"o":{"x":670.3,"y":383.095825,"type":"corner"},"t":{"x":-670.299996,"y":-383.095825}},"keys":{"r":[{"t":0,"v":0,"e":[0.445,0.05,0.55,0.95]},{"t":2000,"v":-13.676263,"e":[0.445,0.05,0.55,0.95]},{"t":3000,"v":-3.03595,"e":[0.445,0.05,0.55,0.95]},{"t":4400,"v":-14.868564,"e":[0.445,0.05,0.55,0.95]},{"t":6000,"v":0,"e":[0.445,0.05,0.55,0.95]}]}}},"e6G7bdkqKFx17":{"transform":{"data":{"t":{"x":-678.349999,"y":-445.799993}},"keys":{"o":[{"t":0,"v":{"x":678.349999,"y":445.800001,"type":"corner"},"e":[0.445,0.05,0.55,0.95]},{"t":2000,"v":{"x":677.335137,"y":445.841756,"type":"corner","start":{"x":677.335137,"y":445.841756},"end":{"x":677.335137,"y":445.841756}},"e":[0.445,0.05,0.55,0.95]},{"t":2500,"v":{"x":677.335137,"y":445.841756,"type":"corner","start":{"x":677.335137,"y":445.841756},"end":{"x":677.335137,"y":445.841756}},"e":[0.445,0.05,0.55,0.95]},{"t":4000,"v":{"x":678.793405,"y":446.113758,"type":"cusp","start":{"x":678.556868,"y":445.771722},"end":{"x":679.048543,"y":445.751493}},"e":[0.445,0.05,0.55,0.95]},{"t":6000,"v":{"x":678.349999,"y":445.800001,"type":"corner","start":{"x":678.349999,"y":445.800001}},"e":[0.445,0.05,0.55,0.95]}],"r":[{"t":0,"v":0,"e":[0.445,0.05,0.55,0.95]},{"t":2000,"v":3.592527,"e":[0.445,0.05,0.55,0.95]},{"t":2500,"v":3.592527,"e":[0.445,0.05,0.55,0.95]},{"t":4000,"v":-1.162756,"e":[0.445,0.05,0.55,0.95]},{"t":6000,"v":0,"e":[0.445,0.05,0.55,0.95]}]}}},"e6G7bdkqKFx20":{"transform":{"data":{"o":{"x":721.296724,"y":375.868165,"type":"corner"},"t":{"x":-721.296722,"y":-375.868158}},"keys":{"r":[{"t":0,"v":0,"e":[0.445,0.05,0.55,0.95]},{"t":1000,"v":-5.319211,"e":[0.445,0.05,0.55,0.95]},{"t":2000,"v":21.324924,"e":[0.445,0.05,0.55,0.95]},{"t":3000,"v":2.879219,"e":[0.445,0.05,0.55,0.95]},{"t":4000,"v":24.867076,"e":[0.445,0.05,0.55,0.95]},{"t":5000,"v":3.313486,"e":[0.445,0.05,0.55,0.95]},{"t":6000,"v":0,"e":[0.445,0.05,0.55,0.95]}]}}},"e6G7bdkqKFx45":{"transform":{"data":{"t":{"x":-649.485681,"y":-358.729844}},"keys":{"o":[{"t":1100,"v":{"x":649.485682,"y":358.729844,"type":"corner"},"e":[0.445,0.05,0.55,0.95]},{"t":2000,"v":{"x":644.519073,"y":353.823528,"type":"corner"},"e":[0.445,0.05,0.55,0.95]},{"t":3000,"v":{"x":649.485682,"y":358.729844,"type":"corner","start":{"x":649.485682,"y":358.729844}},"e":[0.445,0.05,0.55,0.95]},{"t":4400,"v":{"x":653.142188,"y":361.991229,"type":"corner","start":{"x":653.142188,"y":361.991229}},"e":[0.445,0.05,0.55,0.95]},{"t":5900,"v":{"x":649.485682,"y":358.729844,"type":"corner","start":{"x":649.485682,"y":358.729844}}}],"r":[{"t":0,"v":0,"e":[0.445,0.05,0.55,0.95]},{"t":2000,"v":-2.262379,"e":[0.445,0.05,0.55,0.95]},{"t":3500,"v":1.765464,"e":[0.445,0.05,0.55,0.95]},{"t":5500,"v":0}]}}},"e6G7bdkqKFx51":{"transform":{"data":{"o":{"x":621.311035,"y":313.647913,"type":"corner"},"t":{"x":-621.311035,"y":-313.647894}},"keys":{"r":[{"t":1000,"v":0,"e":[0.445,0.05,0.55,0.95]},{"t":2000,"v":-18.247279,"e":[0.445,0.05,0.55,0.95]},{"t":4000,"v":25.841321,"e":[0.445,0.05,0.55,0.95]},{"t":6000,"v":0,"e":[0.445,0.05,0.55,0.95]}]}}},"e6G7bdkqKFx53":{"transform":{"data":{"t":{"x":0.000012,"y":-0.000015}},"keys":{"o":[{"t":0,"v":{"x":573.799988,"y":322.000015,"type":"corner"},"e":[0.445,0.05,0.55,0.95]},{"t":2200,"v":{"x":574.035919,"y":325.503213,"type":"corner"},"e":[0.445,0.05,0.55,0.95]},{"t":4400,"v":{"x":572.374882,"y":322.418928,"type":"corner","start":{"x":572.374882,"y":322.418928}},"e":[0.445,0.05,0.55,0.95]},{"t":6000,"v":{"x":573.799988,"y":322.000015,"type":"corner","start":{"x":573.799988,"y":322.000015},"end":{"x":573.799988,"y":322.000015}},"e":[0.445,0.05,0.55,0.95]}]}}},"e6G7bdkqKFx54":{"transform":{"data":{"t":{"x":-566.779022,"y":-333.965073}},"keys":{"o":[{"t":0,"v":{"x":566.779022,"y":333.965073,"type":"corner"},"e":[0.445,0.05,0.55,0.95]},{"t":2200,"v":{"x":573.800454,"y":340.316881,"type":"corner"},"e":[0.445,0.05,0.55,0.95]},{"t":4400,"v":{"x":563.553555,"y":335.242626,"type":"corner","start":{"x":563.553555,"y":335.242626}},"e":[0.445,0.05,0.55,0.95]},{"t":6000,"v":{"x":566.779022,"y":333.965073,"type":"corner","start":{"x":566.779022,"y":333.965073},"end":{"x":566.779022,"y":333.965073}},"e":[0.445,0.05,0.55,0.95]}],"r":[{"t":0,"v":0,"e":[0.445,0.05,0.55,0.95]},{"t":2200,"v":-36.531537,"e":[0.445,0.05,0.55,0.95]},{"t":4400,"v":0,"e":[0.445,0.05,0.55,0.95]},{"t":6000,"v":0,"e":[0.445,0.05,0.55,0.95]}]}}},"e6G7bdkqKFx59":{"transform":{"data":{"o":{"x":661.119476,"y":340.725113,"type":"corner"},"t":{"x":-661.119476,"y":-340.725113}},"keys":{"s":[{"t":1500,"v":{"x":1,"y":1},"e":[0.445,0.05,0.55,0.95]},{"t":2000,"v":{"x":1,"y":1.114924},"e":[0.445,0.05,0.55,0.95]},{"t":2500,"v":{"x":1,"y":1.114924},"e":[0.445,0.05,0.55,0.95]},{"t":3500,"v":{"x":1,"y":1},"e":[0.445,0.05,0.55,0.95]},{"t":4000,"v":{"x":1,"y":0.912281},"e":[0.445,0.05,0.55,0.95]},{"t":4900,"v":{"x":1,"y":1}}]}}},"e6G7bdkqKFx67":{"transform":{"data":{"o":{"x":611.450017,"y":377.7,"type":"corner"},"t":{"x":-611.450016,"y":-377.699999}},"keys":{"r":[{"t":0,"v":0,"e":[0.445,0.05,0.55,0.95]},{"t":2000,"v":-11.365828,"e":[0.445,0.05,0.55,0.95]},{"t":3000,"v":-3.488939,"e":[0.445,0.05,0.55,0.95]},{"t":4400,"v":-27.337367,"e":[0.445,0.05,0.55,0.95]},{"t":6000,"v":0,"e":[0.445,0.05,0.55,0.95]}]}}},"e6G7bdkqKFx69":{"transform":{"data":{"t":{"x":-583.500003,"y":-428.900018}},"keys":{"o":[{"t":0,"v":{"x":583.500003,"y":428.900018,"type":"corner"},"e":[0.445,0.05,0.55,0.95]},{"t":2000,"v":{"x":586.239368,"y":432.080544,"type":"corner"},"e":[0.445,0.05,0.55,0.95]},{"t":2500,"v":{"x":586.239368,"y":432.080544,"type":"corner","start":{"x":586.239368,"y":432.080544},"end":{"x":586.239368,"y":432.080544}},"e":[0.445,0.05,0.55,0.95]},{"t":4400,"v":{"x":584.892402,"y":425.47691,"type":"corner","start":{"x":584.892402,"y":425.47691}},"e":[0.445,0.05,0.55,0.95]},{"t":4900,"v":{"x":584.892402,"y":425.47691,"type":"corner","start":{"x":584.892402,"y":425.47691},"end":{"x":584.892402,"y":425.47691}},"e":[0.445,0.05,0.55,0.95]},{"t":6000,"v":{"x":583.500003,"y":428.900018,"type":"corner","start":{"x":583.500003,"y":428.900018}},"e":[0.445,0.05,0.55,0.95]}],"r":[{"t":0,"v":0,"e":[0.445,0.05,0.55,0.95]},{"t":2000,"v":-21.32641,"e":[0.445,0.05,0.55,0.95]},{"t":2500,"v":-21.32641,"e":[0.445,0.05,0.55,0.95]},{"t":4400,"v":17.602747,"e":[0.445,0.05,0.55,0.95]},{"t":4900,"v":17.602747,"e":[0.445,0.05,0.55,0.95]},{"t":6000,"v":0,"e":[0.445,0.05,0.55,0.95]}]}}},"e6G7bdkqKFx74":{"transform":{"data":{"o":{"x":668.933959,"y":429.871475,"type":"corner"},"t":{"x":-668.933959,"y":-429.871457}},"keys":{"r":[{"t":0,"v":0,"e":[0.445,0.05,0.55,0.95]},{"t":1000,"v":14.104485,"e":[0.445,0.05,0.55,0.95]},{"t":2000,"v":-8.989463,"e":[0.445,0.05,0.55,0.95]},{"t":3000,"v":-21.118811,"e":[0.445,0.05,0.55,0.95]},{"t":4400,"v":-17.98084,"e":[0.445,0.05,0.55,0.95]},{"t":6000,"v":0}]}}}},"s":"MDEA1ZDhlMzU3NAzg4ODU3NDg3SN2M4MjgxMzUJ0ZDQ5NDM0M1TE0MzNmMzU3NCzdjODVSNzg3RNkg4NzdjODIS4MTM1NGRXNDYQzZjM1N2M4NRzc4ODU3NDg3FQjdjODI4MTgE2MzU0ZDQzM2IYzNTc5N2M3ZCjdmMzU0ZDQ0FM2YzNTc0N2YF4Nzc4ODU4MTLc0ODc3ODM1NSGQ3OU03NDdmEODY3ODNmMzUO4NjgzNzg3ODGc3MzU0ZDQ0SADNmMzU3OUM4KMzg2MzU0ZDQI0SjQzNDM5MFBk/"}],"options":"MDMAxZTg4MmY4MUDgxNmU3ZjgxXMmY0N0IyZjgIwSzcwN2ZWN2SM3OTc5MmYzODTJmODA3MDdmYN2M3OTc5MmYX0NzNmNDI4YQW|"},'https://cdn.svgator.com/ply/','__SVGATOR_PLAYER__','2022-05-04',window,document,'script','http://www.w3.org/2000/svg','http://www.w3.org/1999/xlink')
]]></script>
</svg>