<svg xmlns:xlink="http://www.w3.org/1999/xlink" xmlns="http://www.w3.org/2000/svg" height="393.9" viewBox="-384.3594543995721 -17.11687617009896 1408.7189087991442 674.2337523401978" width="823" x="25" y="25" id="document"><rect x="0" y="0" width="640" height="640" id="overlay-carving" stroke="none" style="" fill="#FFFFFF"></rect> <!----> <g id="elements" style="isolation: isolate;"><defs id="dynamic-definitions"><linearGradient id="ellipse-gqcmymefqe--fill" x1="0.489361" y1="-0.00383" x2="0.49637" y2="0.706156" spreadMethod="pad" gradientUnits="objectBoundingBox"><stop id="ellipse-gqcmymefqe--fill-stop-0" offset="0" stop-color="rgb(21,32,85)"></stop><stop id="ellipse-gqcmymefqe--fill-stop-1" offset="1" stop-color="rgb(12,11,51)"></stop></linearGradient><linearGradient id="ellipse-rw19vov64os--fill" x1="0.205284" y1="-0.273163" x2="0.550399" y2="1.124969" spreadMethod="pad" gradientUnits="objectBoundingBox"><stop id="ellipse-rw19vov64os--fill-stop-0" offset="0" stop-color="rgb(44,218,250)"></stop><stop id="ellipse-rw19vov64os--fill-stop-1" offset="1" stop-color="rgb(0,43,85)"></stop></linearGradient><linearGradient id="path-ie55gfs6p6r--fill" x1="0.215154" y1="0.780113" x2="0.756772" y2="0.270218" spreadMethod="pad" gradientUnits="objectBoundingBox"><stop id="path-ie55gfs6p6r--fill-stop-0" offset="0" stop-color="rgb(7,16,58)"></stop><stop id="path-ie55gfs6p6r--fill-stop-1" offset="1" stop-color="rgb(126,147,255)"></stop></linearGradient><linearGradient id="path-ztfirl71wrl--fill" x1="1.636801" y1="-0.552278" x2="0.401187" y2="0.886182" spreadMethod="pad" gradientUnits="objectBoundingBox"><stop id="path-ztfirl71wrl--fill-stop-0" offset="0" stop-color="rgb(126,147,255)"></stop><stop id="path-ztfirl71wrl--fill-stop-1" offset="1" stop-color="rgb(45,58,121)"></stop></linearGradient><linearGradient id="path-x340g3cuxtd--stroke" x1="0" y1="0.5" x2="1" y2="0.5" spreadMethod="pad" gradientUnits="objectBoundingBox"><stop id="path-x340g3cuxtd--stroke-stop-0" offset="0" stop-color="rgb(143,194,255)"></stop><stop id="path-x340g3cuxtd--stroke-stop-1" offset="1" stop-color="rgb(255,255,255)"></stop></linearGradient><linearGradient id="ellipse-gqcmymefqe--fill" x1="0.489361" y1="-0.00383" x2="0.49637" y2="0.706156" spreadMethod="pad" gradientUnits="objectBoundingBox"><stop id="ellipse-gqcmymefqe--fill-stop-0" offset="0" stop-color="rgb(21,32,85)"></stop><stop id="ellipse-gqcmymefqe--fill-stop-1" offset="1" stop-color="rgb(12,11,51)"></stop></linearGradient><linearGradient id="ellipse-rw19vov64os--fill" x1="0.205284" y1="-0.273163" x2="0.550399" y2="1.124969" spreadMethod="pad" gradientUnits="objectBoundingBox"><stop id="ellipse-rw19vov64os--fill-stop-0" offset="0" stop-color="rgb(44,218,250)"></stop><stop id="ellipse-rw19vov64os--fill-stop-1" offset="1" stop-color="rgb(0,43,85)"></stop></linearGradient><linearGradient id="path-ie55gfs6p6r--fill" x1="0.215154" y1="0.780113" x2="0.756772" y2="0.270218" spreadMethod="pad" gradientUnits="objectBoundingBox"><stop id="path-ie55gfs6p6r--fill-stop-0" offset="0" stop-color="rgb(7,16,58)"></stop><stop id="path-ie55gfs6p6r--fill-stop-1" offset="1" stop-color="rgb(126,147,255)"></stop></linearGradient><linearGradient id="path-ztfirl71wrl--fill" x1="1.636801" y1="-0.552278" x2="0.401187" y2="0.886182" spreadMethod="pad" gradientUnits="objectBoundingBox"><stop id="path-ztfirl71wrl--fill-stop-0" offset="0" stop-color="rgb(126,147,255)"></stop><stop id="path-ztfirl71wrl--fill-stop-1" offset="1" stop-color="rgb(45,58,121)"></stop></linearGradient><linearGradient id="path-x340g3cuxtd--stroke" x1="0" y1="0.5" x2="1" y2="0.5" spreadMethod="pad" gradientUnits="objectBoundingBox"><stop id="path-x340g3cuxtd--stroke-stop-0" offset="0" stop-color="rgb(143,194,255)"></stop><stop id="path-x340g3cuxtd--stroke-stop-1" offset="1" stop-color="rgb(255,255,255)"></stop></linearGradient><pattern height="25" width="58.421875" x="249.55" id="pattern-ruler-h" patternUnits="userSpaceOnUse" y="0"><path d="M 0 25 v -25M 5.8421875 25 v -6.25M 11.684375 25 v -6.25M 17.526562499999997 25 v -6.25M 23.36875 25 v -6.25M 29.2109375 25 v -12.5M 35.053124999999994 25 v -6.25M 40.895312499999996 25 v -6.25M 46.7375 25 v -6.25M 52.5796875 25 v -6.25M 58.421875 25 v -25"></path></pattern><pattern height="58.421875" width="25" y="35" id="pattern-ruler-v" patternUnits="userSpaceOnUse" x="0"><path d="M 25 0 h -25M 25 5.8421875 h -6.25M 25 11.684375 h -6.25M 25 17.526562499999997 h -6.25M 25 23.36875 h -6.25M 25 29.2109375 h -12.5M 25 35.053124999999994 h -6.25M 25 40.895312499999996 h -6.25M 25 46.7375 h -6.25M 25 52.5796875 h -6.25M 25 58.421875 h -25"></path></pattern><linearGradient id="ellipse-gqcmymefqe--fill" x1="0.489361" y1="-0.00383" x2="0.49637" y2="0.706156" spreadMethod="pad" gradientUnits="objectBoundingBox"><stop id="ellipse-gqcmymefqe--fill-stop-0" offset="0" stop-color="rgb(21,32,85)"></stop><stop id="ellipse-gqcmymefqe--fill-stop-1" offset="1" stop-color="rgb(12,11,51)"></stop></linearGradient><linearGradient id="ellipse-rw19vov64os--fill" x1="0.205284" y1="-0.273163" x2="0.550399" y2="1.124969" spreadMethod="pad" gradientUnits="objectBoundingBox"><stop id="ellipse-rw19vov64os--fill-stop-0" offset="0" stop-color="rgb(44,218,250)"></stop><stop id="ellipse-rw19vov64os--fill-stop-1" offset="1" stop-color="rgb(0,43,85)"></stop></linearGradient><linearGradient id="path-ie55gfs6p6r--fill" x1="0.215154" y1="0.780113" x2="0.756772" y2="0.270218" spreadMethod="pad" gradientUnits="objectBoundingBox"><stop id="path-ie55gfs6p6r--fill-stop-0" offset="0" stop-color="rgb(7,16,58)"></stop><stop id="path-ie55gfs6p6r--fill-stop-1" offset="1" stop-color="rgb(126,147,255)"></stop></linearGradient><linearGradient id="path-ztfirl71wrl--fill" x1="1.636801" y1="-0.552278" x2="0.401187" y2="0.886182" spreadMethod="pad" gradientUnits="objectBoundingBox"><stop id="path-ztfirl71wrl--fill-stop-0" offset="0" stop-color="rgb(126,147,255)"></stop><stop id="path-ztfirl71wrl--fill-stop-1" offset="1" stop-color="rgb(45,58,121)"></stop></linearGradient><linearGradient id="path-x340g3cuxtd--stroke" x1="0" y1="0.5" x2="1" y2="0.5" spreadMethod="pad" gradientUnits="objectBoundingBox"><stop id="path-x340g3cuxtd--stroke-stop-0" offset="0" stop-color="rgb(143,194,255)"></stop><stop id="path-x340g3cuxtd--stroke-stop-1" offset="1" stop-color="rgb(255,255,255)"></stop></linearGradient></defs><defs id="definitions"></defs><g id="elements-wrapper"><g id="g-ejxe9hlfoid" transform="translate(-42.159327 88.623402)" style="mix-blend-mode: normal; paint-order: fill;"><ellipse id="ellipse-gqcmymefqe" rx="236.187196" ry="236.187196" transform="matrix(1.041057 0 0 1.041057 365.09482 214.948172)" fill="url(&quot;#ellipse-gqcmymefqe--fill&quot;)" stroke="none" stroke-width="0px" style="mix-blend-mode: normal; paint-order: fill;"></ellipse><path id="ellipse-rw19vov64os" d="M-289.230631,17.691864C-289.230631,-24.242721,-142.505471,-62.233699,-6.493952,-62.233699C64.671833,-62.233699,72.786316,-28.421499,106.400906,-13.279291C137.030271,0.518177,197.726326,9.652507,197.726326,29.645512C197.726326,71.580098,93.551064,77.636037,-42.460455,77.636037C-178.471974,77.636037,-289.230631,59.62645,-289.230631,17.691864Z" transform="matrix(1 0 0 -1 408.651894 430.249953)" fill="url(&quot;#ellipse-rw19vov64os--fill&quot;)" stroke="none" stroke-width="0px" style="mix-blend-mode: normal; paint-order: fill;"></path><path id="path-ie55gfs6p6r" d="M167.54705,66.547574C173.54022,75.886114,176.16328,79.731294,174.51404,81.380534C172.86481,83.029774,165.65523,86.456844,157.77937,80.414054C137.83023,66.734644,124.42834,6.355504,92.15455,18.962444C59.88076,31.569394,109.025362,151.376295,156.845157,198.255372C206.321869,246.758771,228.312463,286.452788,204.738513,332.361318C181.164573,378.269848,113.563146,388.433218,25.902218,366.921334C-61.75871,345.40945,-129.240647,274.746628,-166.94644,213.450364C-121.86734,226.117224,-74.8408,220.857634,-34.37671,220.920524C-37.82426,216.054404,-41.41648,211.136074,-45.21848,206.193974C-53.69165,195.179954,-64.88782,186.042854,-77.19357,178.644054C-36.58343,180.366444,9.20388,181.728544,45.87384,187.349484C64.19059,190.157164,80.65459,196.060584,95.00329,203.495724C87.86946,192.516164,80.83336,180.615664,74.28166,168.121714C44.11022,110.585484,23.06038,25.684454,59.54677,-10.100276C96.03316,-45.885006,143.727781,-27.480288,162.31121,6.399394C180.894639,40.279076,171.687769,54.418392,162.922839,56.216332Q164.363974,60.709282,167.54705,66.547574Z" transform="translate(315.646961 44.479304)" fill="url(&quot;#path-ie55gfs6p6r--fill&quot;)" stroke="none" stroke-width="5px" stroke-miterlimit="36" stroke-dasharray="2648.4" style="mix-blend-mode: normal; paint-order: fill;"></path><path id="ellipse-8y1hw0ok4sw" d="M-172.029167,7.978511C-158.386639,-36.834568,-190.931155,-55.665225,-178.755464,-55.665225C-166.579773,-55.665225,-142.645988,-26.050163,-138.918957,5.869939C-135.191926,37.790041,-139.053749,56.035626,-153.351334,53.606961C-167.648919,51.178296,-186.500824,58.258855,-172.029167,7.978511Z" transform="matrix(0.558809 -0.261874 0.228635 0.487882 551.934789 34.702925)" fill="#0A031B" stroke="none" stroke-width="0px" style="mix-blend-mode: normal; isolation: isolate; paint-order: fill;"></path><path id="path-zc5yk7zunjs" d="M407.475179,108.437143C403.174857,101.324718,398.898524,89.651594,401.371086,83.410361C403.843648,77.169128,415.870827,69.090546,425.592491,92.646886C435.314155,116.203226,440.174987,117.138,439.988032,124.242293C439.801077,131.346586,426.397867,135.295153,407.475179,108.437143Z" transform="translate(63.101045 16.934322)" fill="#FF518C" stroke="none" stroke-width="1.28px" style="mix-blend-mode: normal; paint-order: fill;"></path><path id="path-ztfirl71wrl" d="M354.767411,287.339369C373.287488,300.983644,419.06839,331.488683,404.745899,362.862417C390.423408,394.236151,342.142255,410.017333,259.761415,379.418735C177.380575,348.820137,107.096237,266.792657,90.992058,241.803413C230.931824,244.024679,276.556639,244.213736,354.767411,287.339369Z" transform="translate(54.090416 14.11876)" fill="url(&quot;#path-ztfirl71wrl--fill&quot;)" stroke="none" stroke-width="1.28px" style="mix-blend-mode: normal; paint-order: fill;"></path></g><path id="path-x340g3cuxtd" d="M220.914252,431.101285C311.167852,446.340841,382.331868,440.104658,405.905812,394.196126C429.479756,348.287595,395.404892,310.922241,346.746558,265.866003C298.088224,220.809765,241.129683,96.335589,273.403468,83.728641C305.677253,71.121694,319.079138,131.500835,339.028283,145.180249C346.904149,151.223046,354.113722,147.795968,355.762957,146.146733C357.412192,144.497498,354.789136,140.652314,348.795962,131.313776C342.802788,121.975238,337.59861,106.125922,335.760939,98.051992C333.923267,89.978062,327.22075,78.724199,324.523849,83.668518C321.826948,88.612836,329.468168,106.142695,338.233098,104.344761C346.998027,102.546827,356.844121,97.322723,343.560129,71.165603C330.276137,45.008483,277.282083,18.881203,240.795692,54.665933C204.309301,90.450663,225.359142,175.351687,255.530581,232.887919C285.70202,290.424151,326.146111,335.375165,339.101196,335.756198C352.056282,336.13723,307.370392,264.41642,227.122764,252.115689C146.875136,239.814958,22.964616,247.909777,5.199353,227.991149C-12.56591,208.072521,94.476995,216.946097,136.030445,270.960184C177.583895,324.974271,194.079154,376.149078,270.519733,387.350763C346.960312,398.552448,320.573138,333.749452,262.776833,302.224195C204.980528,270.698937,8.930506,264.821701,8.930506,264.821701C8.930506,264.821701,86.012967,407.319072,220.914252,431.101285Z" transform="translate(92.589193 80.626306)" fill="none" stroke="url(&quot;#path-x340g3cuxtd--stroke&quot;)" stroke-width="5px" stroke-miterlimit="36" stroke-dasharray="2659.74" style="mix-blend-mode: normal; paint-order: fill;" class="" stroke-dashoffset="2542.956039"></path></g></g> <path d="M-384.3594543995721 -17.11687617009896 h1408.7189087991442 v674.2337523401978 h-1408.7189087991442 z M0 0 h640 v640 h-640 z" fill-rule="evenodd" id="overlay" fill="#626262" fill-opacity="0.75"></path> <!----> <g id="user-guides" class=""> </g> </svg>