<svg id="e3PqV8wUQdr1" xmlns="http://www.w3.org/2000/svg" xmlns:xlink="http://www.w3.org/1999/xlink" viewBox="400 400 700 400" shape-rendering="geometricPrecision" text-rendering="geometricPrecision" style="background-color:rgb(21,18,28)" width="700"  height="400" ><defs><radialGradient id="e3PqV8wUQdr5-fill" cx="0" cy="0" r="0.5" spreadMethod="pad" gradientUnits="objectBoundingBox" gradientTransform="matrix(1 0 0 1 0.5 0.5)"><stop id="e3PqV8wUQdr5-fill-0" offset="0%" stop-color="rgb(80,92,241)"></stop><stop id="e3PqV8wUQdr5-fill-1" offset="100%" stop-color="rgba(21,18,28,0)"></stop></radialGradient><filter id="e3PqV8wUQdr9-filter" x="-400%" width="600%" y="-400%" height="600%"><feComponentTransfer id="e3PqV8wUQdr9-filter-brightness-0" result="result"><feFuncR id="e3PqV8wUQdr9-filter-brightness-0-R" type="linear" slope="1"></feFuncR><feFuncG id="e3PqV8wUQdr9-filter-brightness-0-G" type="linear" slope="1"></feFuncG><feFuncB id="e3PqV8wUQdr9-filter-brightness-0-B" type="linear" slope="1"></feFuncB></feComponentTransfer></filter><radialGradient id="e3PqV8wUQdr10-fill" cx="0" cy="0" r="110.967495" spreadMethod="pad" gradientUnits="userSpaceOnUse" gradientTransform="matrix(1 0 0 1 244.3938 275.0997)"><stop id="e3PqV8wUQdr10-fill-0" offset="0%" stop-color="rgb(232,229,255)"></stop><stop id="e3PqV8wUQdr10-fill-1" offset="39%" stop-color="rgb(187,251,255)"></stop><stop id="e3PqV8wUQdr10-fill-2" offset="100%" stop-color="rgba(162,255,255,0)"></stop></radialGradient><radialGradient id="e3PqV8wUQdr11-fill" cx="0" cy="0" r="99.615296" spreadMethod="pad" gradientUnits="userSpaceOnUse" gradientTransform="matrix(1 0 0 1 244.3938 275.0991)"><stop id="e3PqV8wUQdr11-fill-0" offset="0%" stop-color="rgb(173,234,255)"></stop><stop id="e3PqV8wUQdr11-fill-1" offset="68%" stop-color="rgba(185,240,255,0.5)"></stop><stop id="e3PqV8wUQdr11-fill-2" offset="92%" stop-color="rgba(198,175,255,0)"></stop></radialGradient><radialGradient id="e3PqV8wUQdr21-fill" cx="0" cy="0" r="0.536714" spreadMethod="pad" gradientUnits="objectBoundingBox" gradientTransform="matrix(0.744171 0.66799 -0.66593 0.741876 0.6082 0.480866)"><stop id="e3PqV8wUQdr21-fill-0" offset="0%" stop-color="rgb(132,126,151)"></stop><stop id="e3PqV8wUQdr21-fill-1" offset="100%" stop-color="rgb(94,152,189)"></stop></radialGradient><radialGradient id="e3PqV8wUQdr26-fill" cx="0" cy="0" r="6.8173" spreadMethod="pad" gradientUnits="userSpaceOnUse" gradientTransform="matrix(1 0 0 1 148.2775 233.9698)"><stop id="e3PqV8wUQdr26-fill-0" offset="0%" stop-color="rgb(255,255,255)"></stop><stop id="e3PqV8wUQdr26-fill-1" offset="100%" stop-color="rgb(225,248,255)"></stop></radialGradient><radialGradient id="e3PqV8wUQdr5-fill" cx="0" cy="0" r="0.5" spreadMethod="pad" gradientUnits="objectBoundingBox" gradientTransform="matrix(1 0 0 1 0.5 0.5)"><stop id="e3PqV8wUQdr5-fill-0" offset="0%" stop-color="rgb(80,92,241)"></stop><stop id="e3PqV8wUQdr5-fill-1" offset="100%" stop-color="rgba(21,18,28,0)"></stop></radialGradient><radialGradient id="e3PqV8wUQdr10-fill" cx="0" cy="0" r="110.967495" spreadMethod="pad" gradientUnits="userSpaceOnUse" gradientTransform="matrix(1 0 0 1 244.3938 275.0997)"><stop id="e3PqV8wUQdr10-fill-0" offset="0%" stop-color="rgb(232,229,255)"></stop><stop id="e3PqV8wUQdr10-fill-1" offset="39%" stop-color="rgb(187,251,255)"></stop><stop id="e3PqV8wUQdr10-fill-2" offset="100%" stop-color="rgba(162,255,255,0)"></stop></radialGradient><radialGradient id="e3PqV8wUQdr11-fill" cx="0" cy="0" r="99.615296" spreadMethod="pad" gradientUnits="userSpaceOnUse" gradientTransform="matrix(1 0 0 1 244.3938 275.0991)"><stop id="e3PqV8wUQdr11-fill-0" offset="0%" stop-color="rgb(173,234,255)"></stop><stop id="e3PqV8wUQdr11-fill-1" offset="68%" stop-color="rgba(185,240,255,0.5)"></stop><stop id="e3PqV8wUQdr11-fill-2" offset="92%" stop-color="rgba(198,175,255,0)"></stop></radialGradient><radialGradient id="e3PqV8wUQdr21-fill" cx="0" cy="0" r="0.536714" spreadMethod="pad" gradientUnits="objectBoundingBox" gradientTransform="matrix(0.744171 0.66799 -0.66593 0.741876 0.6082 0.480866)"><stop id="e3PqV8wUQdr21-fill-0" offset="0%" stop-color="rgb(132,126,151)"></stop><stop id="e3PqV8wUQdr21-fill-1" offset="100%" stop-color="rgb(94,152,189)"></stop></radialGradient><radialGradient id="e3PqV8wUQdr26-fill" cx="0" cy="0" r="6.8173" spreadMethod="pad" gradientUnits="userSpaceOnUse" gradientTransform="matrix(1 0 0 1 148.2775 233.9698)"><stop id="e3PqV8wUQdr26-fill-0" offset="0%" stop-color="rgb(255,255,255)"></stop><stop id="e3PqV8wUQdr26-fill-1" offset="100%" stop-color="rgb(225,248,255)"></stop></radialGradient></defs><g id="e3PqV8wUQdr2" transform="matrix(0.540636 0 0 0.540636 317.491217 167.491217)"><g id="e3PqV8wUQdr3" transform="matrix(1 0 0 1 400 421.456268)"><g id="e3PqV8wUQdr4" transform="matrix(1 0 0 1 151.387889 102.921124)"><ellipse id="e3PqV8wUQdr5" rx="194.752271" ry="194.752271" transform="matrix(1.197575 0 0 1.197575 248.612117 277.078885)" fill="url(&quot;#e3PqV8wUQdr5-fill&quot;)" stroke="none" stroke-width="0px" stroke-miterlimit="1"></ellipse><g id="e3PqV8wUQdr6" transform="matrix(0.671765 0.515301 -0.494355 0.644459 162.680078 4.945392)" opacity="0"><path id="e3PqV8wUQdr7" d="M174.31,234.94C179.66,245.87,175.316287,256.385631,166.536287,260.685631C157.756287,264.975631,147.86,261.42,142.52,250.49C137.18,239.56,141.65729,222.931048,150.43729,218.631048C159.21729,214.341048,168.96,224.01,174.31,234.94" fill="#2EFAFF" stroke="none" stroke-width="1" stroke-miterlimit="1"></path></g><path id="e3PqV8wUQdr8" d="M166.47,236.95C169.13,246.48,165.69,255.78,158.77,257.71C151.85,259.64,144.09,253.48,141.42,243.95C138.76,234.42,144.884605,221.566662,151.804605,219.636662C158.724605,217.706662,163.8,227.42,166.47,236.95" transform="matrix(0.592934 0.620225 -0.404795 0.386984 330.839681 36.85372)" opacity="0" fill="#41FFFF" stroke="none" stroke-width="1" stroke-miterlimit="1"></path><g id="e3PqV8wUQdr9" filter="url(#e3PqV8wUQdr9-filter)" transform="matrix(-0.784993 0.619505 -0.619505 -0.784993 606.660174 339.650663)"><path id="e3PqV8wUQdr10" d="M350.46,275.1C350.46,333.68,302.97,381.17,244.39,381.17C185.81,381.17,138.32,333.68,138.32,275.1C138.32,216.52,185.81,169.03,244.39,169.03C302.97,169.03,350.46,216.52,350.46,275.1" transform="matrix(1.190268 0 0 1.190268 -46.302905 -52.561184)" opacity="0.31725" fill="url(&quot;#e3PqV8wUQdr10-fill&quot;)" stroke="none" stroke-width="1" stroke-miterlimit="1"></path><path id="e3PqV8wUQdr11" d="M335.26,275.1C335.26,325.29,294.58,365.97,244.39,365.97C194.2,365.97,153.52,325.29,153.52,275.1C153.52,224.91,194.2,184.23,244.39,184.23C294.58,184.23,335.26,224.91,335.26,275.1" transform="matrix(1.013253 0 0 1.013253 -3.239019 -3.646033)" opacity="0.226244" fill="url(&quot;#e3PqV8wUQdr11-fill&quot;)" stroke="none" stroke-width="1" stroke-miterlimit="1"></path><path id="e3PqV8wUQdr12" d="M177.99,275.1C177.99,311.67,207.63,341.31,244.2,341.31C280.77,341.31,310.41,311.66,310.41,275.1C310.41,238.54,280.76,208.89,244.2,208.89C207.64,208.89,177.99,238.53,177.99,275.1" transform="matrix(1.362309 0 0 1.362309 -82.024772 -90.47736)" fill="#EBFFFA" stroke="none" stroke-width="1" stroke-miterlimit="1"></path><path id="e3PqV8wUQdr13" d="M-101.067655,0C-101.067655,-55.818125,-54.561551,-93.493985,1.256574,-93.493985C57.074699,-93.493985,96.698169,-58.865386,96.698169,-3.047261C96.698169,52.770864,62.951155,97.699468,7.13303,97.699468C-48.685095,97.699468,-101.067655,55.818125,-101.067655,0Z" transform="matrix(0.931502 0 0 0.931502 250.031271 276.327732)" fill="none" stroke="#FFFFFF" stroke-width="20px" stroke-miterlimit="1"></path><path id="e3PqV8wUQdr14" d="M-101.067655,0C-101.067655,-55.818125,-54.561551,-93.493985,1.256574,-93.493985C57.074699,-93.493985,96.698169,-58.865386,96.698169,-3.047261C96.698169,52.770864,62.951155,97.699468,7.13303,97.699468C-48.685095,97.699468,-101.067655,55.818125,-101.067655,0Z" transform="matrix(0.870929 0.180086 -0.180086 0.870929 250.584894 276.604544)" fill="none" stroke="#CBFEFF" stroke-width="15px" stroke-miterlimit="1"></path><path id="e3PqV8wUQdr15" d="M-101.067655,0C-101.067655,-55.818125,-54.561551,-93.493985,1.256574,-93.493985C57.074699,-93.493985,96.698169,-58.865386,96.698169,-3.047261C96.698169,52.770864,62.951155,97.699468,7.13303,97.699468C-48.685095,97.699468,-101.067655,55.818125,-101.067655,0Z" transform="matrix(0.751007 0.379001 -0.379001 0.751007 250.031271 276.327732)" fill="none" stroke="#99FDFF" stroke-width="10px" stroke-miterlimit="1"></path><path id="e3PqV8wUQdr16" d="M177.99,275.1C177.99,311.67,207.63,341.31,244.2,341.31C280.77,341.31,310.41,311.66,310.41,275.1C310.41,238.54,280.76,208.89,244.2,208.89C207.64,208.89,177.99,238.53,177.99,275.1" transform="matrix(1.080091 0 0 1.080091 -7.30166 -34.727247)" opacity="0.5" fill="#8FFFAB" stroke="none" stroke-width="1" stroke-miterlimit="1"></path><path id="e3PqV8wUQdr17" d="M177.99,275.1C177.99,311.67,207.63,341.31,244.2,341.31C280.77,341.31,310.41,311.66,310.41,275.1C310.41,238.54,280.76,208.89,244.2,208.89C207.64,208.89,177.99,238.53,177.99,275.1" transform="matrix(1.193105 0 0 1.193105 -33.583672 -36.994842)" fill="#51FFFF" stroke="none" stroke-width="1" stroke-miterlimit="1"></path><path id="e3PqV8wUQdr18" d="M165.07,275.1C165.07,318.91,200.59,354.43,244.4,354.43C288.21,354.43,323.73,318.91,323.73,275.1C323.73,231.29,288.21,195.77,244.4,195.77C200.58,195.77,165.07,231.29,165.07,275.1" transform="matrix(1.064555 0 0 1.064555 -16.122728 -24.303981)" opacity="0.6" fill="#A0F5FF" stroke="none" stroke-width="1" stroke-miterlimit="1"></path><path id="e3PqV8wUQdr19" d="M191.17,275.1C191.17,304.39,214.92,328.14,244.21,328.14C273.5,328.14,297.25,304.39,297.25,275.1C297.25,245.81,273.5,222.06,244.21,222.06C214.92,222.06,191.17,245.81,191.17,275.1" transform="matrix(1.188395 0 0 1.188395 -45.26258 -32.776582)" opacity="0.6" fill="#C6FBFF" stroke="none" stroke-width="1" stroke-miterlimit="1"></path><path id="e3PqV8wUQdr20" d="M-27.14,0C-27.14,-14.989008,-14.989008,-27.14,0,-27.14C14.989008,-27.14,27.14,-14.989008,27.14,0C27.14,14.989008,14.989008,27.14,0,27.14C-14.989008,27.14,-27.14,14.989008,-27.14,0Z" transform="matrix(0.708798 0 0 0.708798 172.34862 250.071977)" fill="#FFFFFF" stroke="none" stroke-width="1" stroke-miterlimit="1" opacity="1"></path><path id="e3PqV8wUQdr21" style="mix-blend-mode:color" d="M-101.067655,0C-101.067655,-55.818125,-54.561551,-93.493985,1.256574,-93.493985C57.074699,-93.493985,96.698169,-58.865386,96.698169,-3.047261C96.698169,52.770864,62.951155,97.699468,7.13303,97.699468C-48.685095,97.699468,-101.067655,55.818125,-101.067655,0Z" transform="matrix(1.031574 0 0 1.031574 250.031271 276.327732)" opacity="1" fill="url(&quot;#e3PqV8wUQdr21-fill&quot;)" stroke="none" stroke-width="20px" stroke-miterlimit="1"></path></g><path id="e3PqV8wUQdr22" d="M158.82,236.74C158.36,243.36,154.06,248.46,149.21,248.13C144.36,247.8,140.79,242.16,141.25,235.54C141.7,228.92,146.01,223.82,150.86,224.15C155.71,224.48,159.28,230.12,158.82,236.74" transform="matrix(0.854724 0 0 0.68782 -131.137874 17.599604)" opacity="0.845" fill="#91FEAD" stroke="none" stroke-width="1" stroke-miterlimit="1"></path><g id="e3PqV8wUQdr23" transform="matrix(0.48907 -0.551823 0.551823 0.48907 4.153236 228.130964)" opacity="1"><path id="e3PqV8wUQdr24" d="M162.84,124.79C162.84,120.93,165.19,117.8,168.1,117.8C171,117.8,173.36,120.93,173.36,124.79C173.36,128.65,171.01,131.78,168.1,131.78C165.2,131.78,162.84,128.65,162.84,124.79" fill="#F19CFF" stroke="none" stroke-width="1" stroke-miterlimit="1"></path></g><path id="e3PqV8wUQdr25" d="M174.45,128.1C173.74,133.24,170.36,137.03,166.92,136.55C163.47,136.07,161.26,131.51,161.97,126.37C162.68,121.22,166.06,117.44,169.5,117.92C172.95,118.39,175.16,122.95,174.45,128.1" transform="matrix(0.846205 -0.481655 0.346738 0.609173 20.823888 199.803321)" opacity="0" fill="#89FFCD" stroke="none" stroke-width="1" stroke-miterlimit="1"></path><path id="e3PqV8wUQdr26" d="M153.93,232.39C155.07,236.46,153.46,240.46,150.33,241.33C147.21,242.2,143.75,239.62,142.62,235.55C141.48,231.48,143.09,227.48,146.22,226.61C149.34,225.74,152.8,228.32,153.93,232.39" transform="matrix(-0.070462 -1.210111 0.998309 -0.058129 -76.848553 293.835336)" opacity="1" fill="url(&quot;#e3PqV8wUQdr26-fill&quot;)" stroke="none" stroke-width="1" stroke-miterlimit="1"></path><g id="e3PqV8wUQdr27"><g id="e3PqV8wUQdr28" transform="matrix(-0.395046 0.311764 -0.311764 -0.395046 214.075552 179.143647)" opacity="0.095"><path id="e3PqV8wUQdr29" d="M166.8,180.72C166.8,189.67,173.55,196.92,181.88,196.92C190.21,196.92,197.763846,189.715477,198.669844,180.655497C199.575842,171.595517,190.238882,164.574034,181.908882,164.574034C173.588882,164.574034,166.8,171.77,166.8,180.72" fill="#4EFFFF" stroke="none" stroke-width="1" stroke-miterlimit="1"></path></g><g id="e3PqV8wUQdr30" transform="matrix(-0.395046 0.311764 -0.311764 -0.395046 214.075552 179.143647)" opacity="0.095"><path id="e3PqV8wUQdr31" style="mix-blend-mode:color" d="M166.8,180.72C166.8,189.67,173.55,196.92,181.88,196.92C190.21,196.92,197.763846,189.715477,198.669844,180.655497C199.575842,171.595517,190.238882,164.574034,181.908882,164.574034C173.588882,164.574034,166.8,171.77,166.8,180.72" fill="#7FD2AC" stroke="none" stroke-width="1" stroke-miterlimit="1" opacity="0"></path></g><path id="e3PqV8wUQdr32" d="M195.56,180.15C195.56,188.78,189.12,195.78,181.18,195.78C173.24,195.78,166.8,188.78,166.8,180.15C166.8,171.52,173.24,164.52,181.18,164.52C189.12,164.52,195.56,171.52,195.56,180.15" transform="matrix(1 0 0 1 -81.113442 -45.46431)" opacity="1" fill="#BFF5FF" stroke="none" stroke-width="1" stroke-miterlimit="1"></path><path id="e3PqV8wUQdr33" d="M168.1,177.76C168.1,185.07,173.48,191,180.12,191C186.76,191,192.14,185.07,192.14,177.76C192.14,170.45,186.76,164.52,180.12,164.52C173.48,164.52,168.1,170.45,168.1,177.76" transform="matrix(0.818506 -0.820413 0.707929 0.706284 -307.211077 268.598133)" fill="#FFFFFF" stroke="none" stroke-width="1" stroke-miterlimit="1" opacity="0.095"></path><g id="e3PqV8wUQdr34" transform="matrix(-0.281714 0.222325 -0.222325 -0.281714 373.309688 230.028769)" opacity="0"><path id="e3PqV8wUQdr35" d="M227.67,226.87C230.81,239.03,243.21,246.34,255.37,243.2C267.53,240.06,274.84,227.66,271.7,215.5C268.56,203.34,256.16,196.03,244,199.17C231.84,202.3,224.53,214.71,227.67,226.87" transform="matrix(1 0 0 1 -0.914046 0.612011)" fill="#42FFFF" stroke="none" stroke-width="1" stroke-miterlimit="1"></path></g><g id="e3PqV8wUQdr36" transform="matrix(-0.281714 0.222325 -0.222325 -0.281714 373.309688 230.028769)" opacity="0"><path id="e3PqV8wUQdr37" style="mix-blend-mode:color" d="M227.67,226.87C230.81,239.03,243.21,246.34,255.37,243.2C267.53,240.06,274.84,227.66,271.7,215.5C268.56,203.34,256.16,196.03,244,199.17C231.84,202.3,224.53,214.71,227.67,226.87" transform="matrix(1 0 0 1 -0.914046 0.612011)" fill="#60FF43" stroke="none" stroke-width="1" stroke-miterlimit="1" opacity="1"></path></g><path id="e3PqV8wUQdr38" d="M228.86,228.89C231.79,240.26,247.226424,247.107456,258.596424,244.167456C269.966424,241.237456,273.492473,226.132037,270.552473,214.762037C267.622473,203.392037,255.5,200.05,244.13,202.99C232.76,205.92,225.93,217.52,228.86,228.89" transform="matrix(-0.987797 -0.155745 0.155745 -0.987797 472.257349 423.158824)" opacity="1" fill="#D1E5FF" stroke="none" stroke-width="1" stroke-miterlimit="1"></path><path id="e3PqV8wUQdr39" d="M-13.7,0C-13.7,-7.566301,-7.566301,-13.7,0,-13.7C7.566301,-13.7,13.7,-7.566301,13.7,0C13.7,7.566301,7.566301,13.7,0,13.7C-7.566301,13.7,-13.7,7.566301,-13.7,0Z" transform="matrix(1 0 0 1 243.63849 171.81585)" opacity="1" fill="#FFFFFF" stroke="none" stroke-width="1" stroke-miterlimit="1"></path></g></g></g></g><script>(function(s,i,u,o,w,d,t,n,x,e,p){w[o]=w[o]||{};w[o][s]=w[o][s]||[];w[o][s].push(i);e=d.createElementNS(n,t);e.async=true;e.setAttributeNS(x,'href',[u,s,'.','j','s'].join(''));e.setAttributeNS(null,'src',[u,s,'.','j','s'].join(''));p=d.getElementsByTagName(t)[0];p.parentNode.insertBefore(e,p);})('91c80d77',{"root":"e3PqV8wUQdr1","animations":[{"elements":{"e3PqV8wUQdr3":{"transform":{"data":{"t":{"x":-244.389999,"y":-275.100006}},"keys":{"o":[{"t":0,"v":{"x":644.389999,"y":695.100006,"type":"corner","end":{"x":711.327791,"y":554.917406}},"e":[0.445,0.05,0.55,0.95]},{"t":1500,"v":{"x":644.389999,"y":759.485001,"type":"corner","end":{"x":711.327792,"y":619.302401}},"e":[0.445,0.05,0.55,0.95]},{"t":3000,"v":{"x":644.389999,"y":659.485001,"type":"corner","end":{"x":711.327792,"y":519.302401}},"e":[0.445,0.05,0.55,0.95]},{"t":5000,"v":{"x":644.389999,"y":759.485001,"type":"corner","end":{"x":711.327792,"y":619.302401}},"e":[0.445,0.05,0.55,0.95]},{"t":6000,"v":{"x":644.389999,"y":695.100006,"type":"corner","end":{"x":711.327791,"y":554.917406}},"e":[0.445,0.05,0.55,0.95]}]}}},"e3PqV8wUQdr6":{"transform":{"data":{"t":{"x":-158.417221,"y":-242.715004}},"keys":{"o":[{"t":0,"v":{"x":206.484344,"y":264.446943,"type":"cusp","end":{"x":96.7024,"y":188.212578}}},{"t":2000,"v":{"x":5.397161,"y":206.417341,"type":"cusp","start":{"x":63.586733,"y":184.862469}}},{"t":2500,"v":{"x":203.89826,"y":256.942802,"type":"cusp","end":{"x":185.210383,"y":196.39482}}},{"t":4600,"v":{"x":222.40081,"y":111.08861,"type":"cusp","start":{"x":211.78003,"y":134.250754}},"e":[1,0]}],"r":[{"t":0,"v":0},{"t":2000,"v":135.83798},{"t":2500,"v":0},{"t":4600,"v":17.836687}],"s":[{"t":0,"v":{"x":1,"y":1}},{"t":2000,"v":{"x":0.444358,"y":0.319665}},{"t":2500,"v":{"x":1,"y":1}},{"t":4600,"v":{"x":0.259162,"y":0.328716},"e":[1,0]}]}},"opacity":[{"t":200,"v":0},{"t":600,"v":1},{"t":1500,"v":1},{"t":1900,"v":0,"e":[1,0]},{"t":3100,"v":0},{"t":3400,"v":1},{"t":4300,"v":1},{"t":4600,"v":0,"e":[1,0]}]},"e3PqV8wUQdr8":{"transform":{"data":{"s":{"x":0.85805,"y":0.560014},"t":{"x":-153.945,"y":-240.449997}},"keys":{"o":[{"t":3200,"v":{"x":324.785832,"y":225.384483,"type":"cusp","end":{"x":386.753996,"y":234.438715}}},{"t":4900,"v":{"x":440.346866,"y":115.554381,"type":"cusp","start":{"x":421.077697,"y":169.758477}}}],"r":[{"t":2500,"v":46.288705},{"t":5100,"v":-106.380511}]}},"opacity":[{"t":3100,"v":0},{"t":3500,"v":1},{"t":4600,"v":1},{"t":4900,"v":0}]},"e3PqV8wUQdr9":{"transform":{"data":{"o":{"x":244.389984,"y":275.100006,"type":"corner"},"t":{"x":-244.389984,"y":-275.100006}},"keys":{"r":[{"t":0,"v":0},{"t":6000,"v":360}]}}},"e3PqV8wUQdr10":{"transform":{"data":{"o":{"x":244.586678,"y":274.881556,"type":"corner"},"t":{"x":-244.389984,"y":-275.100006}},"keys":{"s":[{"t":0,"v":{"x":1.380472,"y":1.380472}},{"t":1700,"v":{"x":1.324551,"y":1.324551}},{"t":3300,"v":{"x":1,"y":1}},{"t":4700,"v":{"x":1.324551,"y":1.324551}},{"t":6000,"v":{"x":1.380472,"y":1.380472}}]}},"opacity":[{"t":0,"v":0.2},{"t":1700,"v":0.4},{"t":3300,"v":0.2},{"t":4700,"v":0.4},{"t":6000,"v":0.2}]},"e3PqV8wUQdr11":{"transform":{"data":{"o":{"x":244.390015,"y":275.100006,"type":"corner"},"t":{"x":-244.390015,"y":-275.100006}},"keys":{"s":[{"t":0,"v":{"x":1.413053,"y":1.413053},"e":[0.445,0.05,0.55,0.95]},{"t":1000,"v":{"x":1.151503,"y":1.151503},"e":[0.445,0.05,0.55,0.95]},{"t":2700,"v":{"x":1,"y":1},"e":[0.445,0.05,0.55,0.95]},{"t":4200,"v":{"x":1.151503,"y":1.151503},"e":[0.445,0.05,0.55,0.95]},{"t":6000,"v":{"x":1.413053,"y":1.413053},"e":[0.445,0.05,0.55,0.95]}]}},"opacity":[{"t":0,"v":0.2,"e":[0.445,0.05,0.55,0.95]},{"t":1000,"v":0.5,"e":[0.445,0.05,0.55,0.95]},{"t":2700,"v":0.2,"e":[0.445,0.05,0.55,0.95]},{"t":4200,"v":0.5,"e":[0.445,0.05,0.55,0.95]},{"t":6000,"v":0.2,"e":[0.445,0.05,0.55,0.95]}]},"e3PqV8wUQdr12":{"transform":{"data":{"s":{"x":1.362309,"y":1.362309},"t":{"x":-244.200005,"y":-275.100006}},"keys":{"o":[{"t":0,"v":{"x":243.047649,"y":276.491501,"type":"cusp","end":{"x":248.770004,"y":276.995077}}},{"t":3000,"v":{"x":250.869517,"y":287.442115,"type":"cusp","start":{"x":251.179555,"y":283.113834},"end":{"x":243.73296,"y":287.483085}}},{"t":6000,"v":{"x":243.047649,"y":276.491501,"type":"cusp","start":{"x":239.652139,"y":282.100444},"end":{"x":248.770004,"y":276.995077}}}]}}},"e3PqV8wUQdr16":{"transform":{"data":{"t":{"x":-244.200005,"y":-275.100006}},"keys":{"o":[{"t":0,"v":{"x":233.56803,"y":270.981321,"type":"cusp","end":{"x":235.857728,"y":267.577092}},"e":[0.445,0.05,0.55,0.95]},{"t":2800,"v":{"x":257.839263,"y":263.008204,"type":"cusp","start":{"x":252.69091,"y":259.543259},"end":{"x":264.366108,"y":271.863224}},"e":[0.445,0.05,0.55,0.95]},{"t":4500,"v":{"x":262.751625,"y":308.609886,"type":"cusp","start":{"x":264.337173,"y":294.664065},"end":{"x":252.656128,"y":296.853661}},"e":[0.445,0.05,0.55,0.95]},{"t":6000,"v":{"x":233.56803,"y":270.981321,"type":"corner","end":{"x":235.857728,"y":267.577092}},"e":[0.445,0.05,0.55,0.95]}],"s":[{"t":0,"v":{"x":1,"y":1},"e":[0.445,0.05,0.55,0.95]},{"t":2800,"v":{"x":1.08492,"y":1.08492},"e":[0.445,0.05,0.55,0.95]},{"t":4500,"v":{"x":0.904463,"y":0.904463},"e":[0.445,0.05,0.55,0.95]},{"t":6000,"v":{"x":1,"y":1}}]}}},"e3PqV8wUQdr17":{"transform":{"data":{"t":{"x":-244.200005,"y":-275.100006}},"keys":{"o":[{"t":0,"v":{"x":250.031277,"y":258.663079,"type":"cusp","end":{"x":237.122711,"y":269.141241}},"e":[0.445,0.05,0.55,0.95]},{"t":3000,"v":{"x":261.939606,"y":291.656054,"type":"cusp","start":{"x":252.226426,"y":294.054089},"end":{"x":265.784828,"y":285.069746}},"e":[0.445,0.05,0.55,0.95]},{"t":6000,"v":{"x":250.031277,"y":258.663079,"type":"cusp","start":{"x":251.657249,"y":267.393936}}}],"s":[{"t":0,"v":{"x":1.200222,"y":1.200222},"e":[0.445,0.05,0.55,0.95]},{"t":3000,"v":{"x":1.192323,"y":1.192323},"e":[0.445,0.05,0.55,0.95]},{"t":6000,"v":{"x":1.200222,"y":1.200222}}]}}},"e3PqV8wUQdr18":{"transform":{"data":{"t":{"x":-244.400009,"y":-275.099983}},"keys":{"o":[{"t":0,"v":{"x":254.189625,"y":289.073928,"type":"cusp","end":{"x":261.112631,"y":271.267485}},"e":[0.445,0.05,0.55,0.95]},{"t":2200,"v":{"x":244.143698,"y":268.380568,"type":"cusp","start":{"x":267.485217,"y":255.32456},"end":{"x":240.85143,"y":274.71071}},"e":[0.445,0.05,0.55,0.95]},{"t":6000,"v":{"x":254.189625,"y":289.073928,"type":"cusp","start":{"x":242.806725,"y":283.350181},"end":{"x":261.112631,"y":271.267485}},"e":[0.445,0.05,0.55,0.95]}],"s":[{"t":0,"v":{"x":1,"y":1},"e":[0.445,0.05,0.55,0.95]},{"t":3000,"v":{"x":1.07165,"y":1.07165},"e":[0.445,0.05,0.55,0.95]},{"t":6000,"v":{"x":1,"y":1}}]}}},"e3PqV8wUQdr19":{"transform":{"data":{"t":{"x":-244.209999,"y":-275.100006}},"keys":{"o":[{"t":0,"v":{"x":227.194203,"y":289.263144,"type":"cusp","end":{"x":252.494789,"y":264.710208}},"e":[0.445,0.05,0.55,0.95]},{"t":3000,"v":{"x":240.778258,"y":300.472832,"type":"cusp","start":{"x":274.647019,"y":250.078594},"end":{"x":279.983215,"y":241.585191}},"e":[0.445,0.05,0.55,0.95]},{"t":6000,"v":{"x":227.194203,"y":289.263144,"type":"cusp","start":{"x":253.908388,"y":262.14986}},"e":[0.445,0.05,0.55,0.95]}],"s":[{"t":0,"v":{"x":1,"y":1},"e":[0.445,0.05,0.55,0.95]},{"t":3000,"v":{"x":1.2091,"y":1.2091},"e":[0.445,0.05,0.55,0.95]},{"t":6000,"v":{"x":1,"y":1}}]}}},"e3PqV8wUQdr20":{"transform":{"data":{"t":{"x":0.000004,"y":0.000002}},"keys":{"o":[{"t":0,"v":{"x":274.112293,"y":238.243739,"type":"cusp","end":{"x":321.816365,"y":259.318629}},"e":[0.445,0.05,0.55,0.95]},{"t":2400,"v":{"x":172.082828,"y":249.79554,"type":"cusp","start":{"x":262.829125,"y":344.453388},"end":{"x":132.235616,"y":184.084493}},"e":[0.445,0.05,0.55,0.95]},{"t":6000,"v":{"x":274.112293,"y":238.243739,"type":"cusp","start":{"x":307.814719,"y":142.789442},"end":{"x":321.816365,"y":259.318629}},"e":[0.445,0.05,0.55,0.95]}],"s":[{"t":0,"v":{"x":1,"y":1}},{"t":2400,"v":{"x":0.704113,"y":0.704113}},{"t":4000,"v":{"x":0.163267,"y":0.163267}},{"t":6000,"v":{"x":1,"y":1}}]}},"opacity":[{"t":4000,"v":1},{"t":4400,"v":0},{"t":4800,"v":0},{"t":5100,"v":1}]},"e3PqV8wUQdr21":{"opacity":[{"t":0,"v":0},{"t":1000,"v":1},{"t":4200,"v":1},{"t":6000,"v":0}],"fill":[{"t":900,"v":{"t":"g","v":[{"r":173,"g":49,"b":228,"a":1},{"r":54,"g":114,"b":150,"a":1}],"r":"e3PqV8wUQdr21-fill"}},{"t":4300,"v":{"t":"g","v":[{"r":77,"g":228,"b":49,"a":1},{"r":147,"g":203,"b":240,"a":1}],"r":"e3PqV8wUQdr21-fill"}}]},"e3PqV8wUQdr22":{"transform":{"data":{"s":{"x":0.854724,"y":0.68782},"t":{"x":-150.035004,"y":-236.140007}},"keys":{"o":[{"t":200,"v":{"x":169.224657,"y":276.98729,"type":"cusp","end":{"x":54.464258,"y":267.423717}}},{"t":2700,"v":{"x":-34.15075,"y":188.703063,"type":"cusp","start":{"x":87.039668,"y":143.352971}}}]}},"opacity":[{"t":200,"v":0},{"t":600,"v":1},{"t":2300,"v":1},{"t":2700,"v":0}],"fill":[{"t":400,"v":{"t":"c","v":{"r":143,"g":255,"b":171,"a":1}}},{"t":900,"v":{"t":"c","v":{"r":221,"g":223,"b":255,"a":1}}},{"t":2400,"v":{"t":"c","v":{"r":143,"g":255,"b":171,"a":1}}}]},"e3PqV8wUQdr23":{"transform":{"data":{"t":{"x":-168.209999,"y":-127.195503}},"keys":{"o":[{"t":0,"v":{"x":210.679099,"y":226.135428,"type":"cusp","end":{"x":212.414267,"y":225.24344}}},{"t":1300,"v":{"x":165.350988,"y":146.638561,"type":"cusp","start":{"x":186.408505,"y":155.843772}},"e":[1,0]},{"t":1600,"v":{"x":210.679099,"y":226.135428,"type":"cusp","end":{"x":174.766789,"y":222.69696}}},{"t":3200,"v":{"x":110.270647,"y":147.339806,"type":"cusp","start":{"x":138.982592,"y":182.262277},"end":{"x":112.005814,"y":146.447818}},"e":[1,0]},{"t":3600,"v":{"x":267.707592,"y":210.758571,"type":"cusp","end":{"x":274.025513,"y":177.777432}}},{"t":5200,"v":{"x":311.16037,"y":116.206578,"type":"cusp","start":{"x":298.782105,"y":126.965001}},"e":[1,0]}],"r":[{"t":0,"v":-25.737879},{"t":1300,"v":-33.328424,"e":[1,0]},{"t":1600,"v":-62.429608},{"t":3200,"v":-33.076224,"e":[1,0]},{"t":3600,"v":22.144422}],"s":[{"t":0,"v":{"x":1,"y":1}},{"t":1300,"v":{"x":0.851694,"y":0.851694},"e":[1,0]},{"t":1600,"v":{"x":1,"y":1}},{"t":3200,"v":{"x":0.448523,"y":0.448523},"e":[1,0]},{"t":3600,"v":{"x":1,"y":1}},{"t":5200,"v":{"x":0.505195,"y":0.505195},"e":[1,0]}]}},"opacity":[{"t":300,"v":0},{"t":600,"v":1},{"t":1000,"v":1},{"t":1300,"v":0,"e":[1,0]},{"t":1800,"v":0},{"t":2000,"v":1},{"t":2800,"v":1},{"t":3100,"v":0,"e":[1,0]},{"t":3700,"v":0},{"t":4000,"v":1},{"t":4800,"v":1},{"t":5100,"v":0,"e":[1,0]}]},"e3PqV8wUQdr24":{"fill":[{"t":200,"v":{"t":"c","v":{"r":236,"g":133,"b":253,"a":1}}},{"t":2500,"v":{"t":"c","v":{"r":241,"g":157,"b":255,"a":1}}},{"t":4000,"v":{"t":"c","v":{"r":159,"g":255,"b":199,"a":1}}}]},"e3PqV8wUQdr25":{"transform":{"data":{"r":-29.648302,"s":{"x":0.973681,"y":0.700941},"t":{"x":-168.209999,"y":-127.234959}},"keys":{"o":[{"t":2900,"v":{"x":207.281188,"y":196.292119,"type":"cusp","end":{"x":322.129998,"y":144.976672}}},{"t":5500,"v":{"x":395.795391,"y":44.398867,"type":"cusp","start":{"x":303.768969,"y":50.527338}}}]}},"opacity":[{"t":2700,"v":0},{"t":3000,"v":1},{"t":5200,"v":1},{"t":5500,"v":0}],"fill":[{"t":3000,"v":{"t":"c","v":{"r":137,"g":255,"b":205,"a":1}}},{"t":4700,"v":{"t":"c","v":{"r":96,"g":255,"b":247,"a":1}}}]},"e3PqV8wUQdr26":{"transform":{"data":{"s":{"x":1.212161,"y":1},"t":{"x":-148.274986,"y":-233.970001}},"keys":{"o":[{"t":800,"v":{"x":182.802146,"y":211.260298,"type":"cusp","end":{"x":177.576846,"y":133.786017}}},{"t":3200,"v":{"x":95.988382,"y":66.95554,"type":"cusp","start":{"x":134.240469,"y":64.732595}}}],"r":[{"t":0,"v":0},{"t":3200,"v":-126.445293}]}},"opacity":[{"t":600,"v":0},{"t":800,"v":1},{"t":2700,"v":1},{"t":3100,"v":0}]},"e3PqV8wUQdr28":{"transform":{"data":{"t":{"x":-181.879997,"y":-180.719994}},"keys":{"o":[{"t":300,"v":{"x":222.128542,"y":230.553064,"type":"cusp","end":{"x":198.351538,"y":199.585605}}},{"t":2400,"v":{"x":83.190011,"y":165.841724,"type":"cusp","start":{"x":141.908438,"y":134.134856}},"e":[1,0]},{"t":3700,"v":{"x":233.458091,"y":223.013642,"type":"cusp","end":{"x":227.052768,"y":176.471758}}},{"t":6000,"v":{"x":306.383605,"y":104.947819,"type":"cusp","start":{"x":271.226924,"y":103.872802},"end":{"x":277.048702,"y":76.759309}}}],"r":[{"t":0,"v":0},{"t":6000,"v":360}],"s":[{"t":300,"v":{"x":0.474733,"y":0.474733}},{"t":1700,"v":{"x":1,"y":1}},{"t":2400,"v":{"x":0.474733,"y":0.474733},"e":[1,0]},{"t":3700,"v":{"x":0.474733,"y":0.474733}},{"t":5000,"v":{"x":1,"y":1}},{"t":6000,"v":{"x":0.341904,"y":0.341904}}]}},"opacity":[{"t":600,"v":0},{"t":900,"v":1},{"t":2000,"v":1},{"t":2400,"v":0,"e":[1,0]},{"t":4000,"v":0},{"t":4200,"v":1},{"t":5600,"v":1},{"t":6000,"v":0}]},"e3PqV8wUQdr30":{"transform":{"data":{"t":{"x":-181.879997,"y":-180.719994}},"keys":{"o":[{"t":300,"v":{"x":222.128542,"y":230.553064,"type":"cusp","end":{"x":198.351538,"y":199.585605}}},{"t":2400,"v":{"x":83.190011,"y":165.841724,"type":"cusp","start":{"x":141.908438,"y":134.134856}},"e":[1,0]},{"t":3700,"v":{"x":233.458091,"y":223.013642,"type":"cusp","end":{"x":227.052768,"y":176.471758}}},{"t":6000,"v":{"x":306.383605,"y":104.947819,"type":"cusp","start":{"x":271.226924,"y":103.872802},"end":{"x":277.048702,"y":76.759309}}}],"r":[{"t":0,"v":0},{"t":6000,"v":360}],"s":[{"t":300,"v":{"x":0.474733,"y":0.474733}},{"t":1700,"v":{"x":1,"y":1}},{"t":2400,"v":{"x":0.474733,"y":0.474733},"e":[1,0]},{"t":3700,"v":{"x":0.474733,"y":0.474733}},{"t":5000,"v":{"x":1,"y":1}},{"t":6000,"v":{"x":0.341904,"y":0.341904}}]}},"opacity":[{"t":600,"v":0},{"t":900,"v":1},{"t":2000,"v":1},{"t":2400,"v":0,"e":[1,0]},{"t":4000,"v":0},{"t":4200,"v":1},{"t":5600,"v":1},{"t":6000,"v":0}]},"e3PqV8wUQdr31":{"opacity":[{"t":800,"v":1},{"t":1800,"v":0},{"t":3700,"v":0},{"t":3900,"v":1},{"t":5300,"v":0}],"fill":[{"t":800,"v":{"t":"c","v":{"r":156,"g":173,"b":255,"a":1}}},{"t":3700,"v":{"t":"c","v":{"r":102,"g":242,"b":101,"a":1}}}]},"e3PqV8wUQdr32":{"transform":{"data":{"t":{"x":-181.179993,"y":-180.149994}},"keys":{"o":[{"t":900,"v":{"x":216.674934,"y":239.141586,"type":"cusp","end":{"x":171.945184,"y":222.205804}}},{"t":3000,"v":{"x":31.701301,"y":131.156977,"type":"cusp","start":{"x":149.106625,"y":108.560135}}}]}},"opacity":[{"t":800,"v":0},{"t":1200,"v":1},{"t":2600,"v":1},{"t":2900,"v":0}],"fill":[{"t":1400,"v":{"t":"c","v":{"r":238,"g":215,"b":255,"a":1}}},{"t":2700,"v":{"t":"c","v":{"r":175,"g":255,"b":255,"a":1}}}]},"e3PqV8wUQdr33":{"transform":{"data":{"t":{"x":-180.12001,"y":-177.759995}},"keys":{"o":[{"t":100,"v":{"x":270.107183,"y":235.2518,"type":"cusp","end":{"x":201.193728,"y":180.682824}}},{"t":2400,"v":{"x":-38.848777,"y":248.249946,"type":"cusp","start":{"x":4.534779,"y":230.781999}}}],"r":[{"t":0,"v":0},{"t":2700,"v":360}],"s":[{"t":0,"v":{"x":1,"y":1}},{"t":2200,"v":{"x":1.158892,"y":1}}]}},"opacity":[{"t":0,"v":1},{"t":2000,"v":1},{"t":2400,"v":0}]},"e3PqV8wUQdr34":{"transform":{"data":{"t":{"x":-249.684998,"y":-221.641998}},"keys":{"o":[{"t":2900,"v":{"x":253.693338,"y":223.100248,"type":"cusp","end":{"x":290.392612,"y":184.969934}}},{"t":5500,"v":{"x":374.709993,"y":191,"type":"cusp","start":{"x":333.41281,"y":177.672332}}}],"r":[{"t":0,"v":0},{"t":6000,"v":360}],"s":[{"t":2900,"v":{"x":0.358875,"y":0.358875}},{"t":4900,"v":{"x":1,"y":1}},{"t":5500,"v":{"x":0.358875,"y":0.358875}}]}},"opacity":[{"t":3100,"v":0},{"t":3400,"v":1},{"t":5200,"v":1},{"t":5500,"v":0}]},"e3PqV8wUQdr36":{"transform":{"data":{"t":{"x":-249.684998,"y":-221.641998}},"keys":{"o":[{"t":2900,"v":{"x":253.693338,"y":223.100248,"type":"cusp","end":{"x":290.392612,"y":184.969934}}},{"t":5500,"v":{"x":374.709993,"y":191,"type":"cusp","start":{"x":333.41281,"y":177.672332}}}],"r":[{"t":0,"v":0},{"t":6000,"v":360}],"s":[{"t":2900,"v":{"x":0.358875,"y":0.358875}},{"t":4900,"v":{"x":1,"y":1}},{"t":5500,"v":{"x":0.358875,"y":0.358875}}]}},"opacity":[{"t":3100,"v":0},{"t":3400,"v":1},{"t":5200,"v":1},{"t":5500,"v":0}]},"e3PqV8wUQdr37":{"opacity":[{"t":3200,"v":1},{"t":4500,"v":0}]},"e3PqV8wUQdr38":{"transform":{"data":{"t":{"x":-249.446671,"y":-223.575005}},"keys":{"o":[{"t":1000,"v":{"x":250.039091,"y":245.054331,"type":"cusp","end":{"x":214.860195,"y":112.137939}},"e":[0.445,0.05,0.55,0.95]},{"t":4200,"v":{"x":356.242046,"y":72.536416,"type":"cusp","start":{"x":371.428945,"y":150.254371}}}],"r":[{"t":0,"v":0},{"t":4500,"v":360}]}},"opacity":[{"t":800,"v":0},{"t":1000,"v":1},{"t":3600,"v":1},{"t":4200,"v":0}],"fill":[{"t":1600,"v":{"t":"c","v":{"r":233,"g":217,"b":255,"a":1}}},{"t":3600,"v":{"t":"c","v":{"r":170,"g":249,"b":255,"a":1}}}]},"e3PqV8wUQdr39":{"transform":{"data":{"t":{"x":0.000001,"y":-0.000007}},"keys":{"o":[{"t":1800,"v":{"x":248.806215,"y":208.276027,"type":"cusp","end":{"x":224.667375,"y":85.930263}}},{"t":4500,"v":{"x":304.850195,"y":55.796005,"type":"cusp","start":{"x":282.250174,"y":81.223903}}}]}},"opacity":[{"t":1600,"v":0},{"t":1900,"v":1},{"t":4300,"v":1},{"t":4500,"v":0}]}},"s":"MDJA1M2FiNTI5NAGE1YTI5MWE0GOTk5ZjllNTIR2YTY2STYwNjHBBRDYwNWM1MPjk0OTlhMjk1BOTNhNDk5OWYF5ZTUyNmE2MUPw1YzUyOTlhNMDk1YTI5MWE0QOTlCOWY5ZWEPzNTI2YTYwVjFVjNTI5Njk5OPWM5YzUyNmE2VMTVjNTI5MTlBjYTQ5NWEyOWNU5MUNhNDk1NJTI2YTk2OTE5FY2EzOTU1YzUUyYTNhMDk1OTBU5NDUyNmE2MFWFk"}],"options":"MDPAxMEc4MjI5NT2E3YjY4Nzk3NYkEyOTQxMjkY3M043NkU2ODBZiRTI5ODRO"},'https://cdn.svgator.com/ply/','__SVGATOR_PLAYER__',window,document,'script','http://www.w3.org/2000/svg','http://www.w3.org/1999/xlink')</script></svg>